<?xml version="1.0" encoding="utf-8"?>
<!-- Generator: Adobe Illustrator 23.0.1, SVG Export Plug-In . SVG Version: 6.00 Build 0)  -->
<svg version="1.1" id="Layer_1" xmlns="http://www.w3.org/2000/svg" xmlns:xlink="http://www.w3.org/1999/xlink" x="0px" y="0px"
	 viewBox="0 0 1920 1080" style="enable-background:new 0 0 1920 1080;" xml:space="preserve">
<style type="text/css">
	.st0{fill:#333333;}
	.st1{fill:#FFFFFF;}
	.st2{fill:#D1D1D1;}
	.st3{fill:#B2B2B2;}
	.st4{fill:#666666;}
	.st5{fill:#898989;}
</style>
<g>
	<path class="st1" d="M874.5535,437.5944V335.8881c0-49.0879,36.9446-67.3755,85.3537-67.3755
		c47.985,0,85.778,18.2876,85.778,67.3755v101.7063c0,49.0824-37.793,67.37-85.778,67.37
		C911.4981,504.9644,874.5535,486.6768,874.5535,437.5944z M1024.4556,335.8881c0-35.6172-24.2073-51.978-64.5483-51.978
		c-40.3409,0-64.124,16.3608-64.124,51.978v101.7063c0,35.6117,23.7831,51.9725,64.124,51.9725
		c40.341,0,64.5483-16.3608,64.5483-51.9725V335.8881z"/>
	<path class="st1" d="M1255.8851,491.1707l-124.849-184.8022v189.6135c0,4.8168-5.0905,7.0611-10.6134,7.0611
		c-5.0961,0-10.6135-2.2442-10.6135-7.0611V275.2507c0-5.1343,5.0906-6.7381,10.6135-6.7381
		c7.6412,0,13.5856,7.7015,17.4117,13.1533l122.7197,183.1929V275.2507c0-4.8168,5.5229-6.7381,10.6189-6.7381
		c5.5175,0,10.6189,1.9213,10.6189,6.7381v220.7314c0,4.8168-5.1014,7.0611-10.6189,7.0611
		C1264.8018,503.0432,1259.7058,496.6225,1255.8851,491.1707z"/>
	<path class="st1" d="M1494.9532,491.1707l-124.8435-184.8022v189.6135c0,4.8168-5.0959,7.0611-10.6134,7.0611
		c-5.1016,0-10.619-2.2442-10.619-7.0611V275.2507c0-5.1343,5.0961-6.7381,10.619-6.7381c7.6412,0,13.5856,7.7015,17.4062,13.1533
		l122.7252,183.1929V275.2507c0-4.8168,5.5229-6.7381,10.6189-6.7381c5.5175,0,10.6134,1.9213,10.6134,6.7381v220.7314
		c0,4.8168-5.0959,7.0611-10.6134,7.0611C1503.8754,503.0432,1498.7794,496.6225,1494.9532,491.1707z"/>
	<path class="st1" d="M1652.918,400.6964l-62.8486,91.7552c-2.9723,4.4939-6.366,10.909-12.7373,10.909
		c-5.5229,0-11.8888-3.525-11.8888-8.0189c0-1.2808,0.8484-2.5671,1.6968-4.1709l73.0408-105.5543l-71.7654-104.591
		c-1.7023-2.2442-2.5507-4.1709-2.5507-6.0977c0-4.1709,5.0959-6.7381,11.8943-6.7381c5.9443,0,10.1919,6.0977,13.5856,11.2265
		l61.5734,90.7973l62.0004-90.7973c3.399-4.4884,7.2197-11.2265,13.5856-11.2265c6.7983,0,11.8943,2.5672,11.8943,6.7381
		c0,1.9267-0.8484,3.8535-2.5507,6.0977l-72.1869,104.591l73.4623,105.5543c0.8484,1.6038,1.7023,2.8901,1.7023,4.1709
		c0,4.4939-5.95,8.0189-11.8943,8.0189c-6.3713,0-9.765-6.4151-12.7373-10.909L1652.918,400.6964z"/>
</g>
<g>
	<g>
		<g>
			<polygon class="st0" points="331.0793,691.2943 466.9117,539.4279 466.9117,827.1651 			"/>
			<polyline class="st4" points="331.0793,691.2943 418.6359,594.3124 466.901,691.2943 			"/>
			<path class="st5" d="M466.9117,827.1651L331.0793,691.2943H466.901C466.901,691.2943,466.9117,826.2846,466.9117,827.1651z"/>
		</g>
		<g>
			<polygon class="st0" points="315.0457,403.5955 466.912,539.4279 179.1748,539.4278 			"/>
			<polyline class="st4" points="315.0457,403.5955 412.0275,491.1521 315.0457,539.4172 			"/>
			<path class="st5" d="M179.1748,539.4278l135.8709-135.8323v135.8217C315.0457,539.4172,180.0553,539.4278,179.1748,539.4278z"/>
		</g>
		<g>
			<polygon class="st0" points="602.4288,388.7058 466.5963,540.5721 466.5964,252.8349 			"/>
			<polyline class="st4" points="602.4288,388.7058 514.8721,485.6876 466.6071,388.7058 			"/>
			<path class="st5" d="M466.5964,252.8349l135.8324,135.8709H466.6071C466.6071,388.7058,466.5964,253.7154,466.5964,252.8349z"/>
		</g>
		<g>
			<polygon class="st0" points="618.4624,676.4045 466.5961,540.5721 754.3333,540.5722 			"/>
			<polyline class="st4" points="618.4624,676.4045 521.4806,588.8479 618.4624,540.5828 			"/>
		</g>
	</g>
	<path class="st5" d="M754.3333,540.5721L618.4624,676.4044V540.5828C618.4624,540.5828,753.4528,540.5721,754.3333,540.5721z"/>
	<path class="st1" d="M757.5742,539.2305c-0.543-1.3115-1.8223-2.166-3.2412-2.166h-0.1384H474.4403L605.043,391.045
		c0.012-0.0133,0.0193-0.0288,0.031-0.0422c0.135-0.1554,0.2598-0.3206,0.3668-0.5c0.0138-0.0231,0.0226-0.0477,0.0358-0.0709
		c0.0701-0.1238,0.1379-0.2493,0.1934-0.3829c0.0126-0.0303,0.0188-0.062,0.0305-0.0925c0.0239-0.0627,0.0422-0.1262,0.0625-0.1899
		c0.0422-0.1332,0.0771-0.2668,0.103-0.4023c0.0122-0.0645,0.0242-0.1282,0.0328-0.193c0.0201-0.1512,0.0289-0.3024,0.0294-0.4537
		c0.0001-0.0474,0.0048-0.0942,0.0029-0.1416c-0.0073-0.197-0.0303-0.3922-0.0706-0.5846c-0.0095-0.046-0.026-0.0902-0.0374-0.1359
		c-0.0366-0.146-0.0808-0.2893-0.136-0.4299c-0.0256-0.0657-0.0552-0.1292-0.0851-0.1934c-0.0576-0.1243-0.123-0.2441-0.1954-0.3617
		c-0.0352-0.057-0.0681-0.1144-0.1068-0.1698c-0.1165-0.1669-0.2435-0.3276-0.3907-0.4749l-135.832-135.8711
		c-1.002-1.002-2.5107-1.3037-3.8223-0.7607s-2.166,1.8223-2.166,3.2412v0.1384v278.3286L317.3848,400.9815
		c-0.0133-0.012-0.0289-0.0194-0.0424-0.0311c-0.1549-0.1346-0.3194-0.259-0.4983-0.3658
		c-0.0287-0.0173-0.0596-0.0286-0.0887-0.0449c-0.119-0.0664-0.2387-0.1321-0.3667-0.1851
		c-0.0286-0.0118-0.0585-0.0176-0.0873-0.0287c-0.0693-0.0267-0.1393-0.0469-0.2098-0.069
		c-0.1241-0.0387-0.2484-0.0712-0.3745-0.0957c-0.0729-0.0142-0.1448-0.0277-0.2183-0.0372c-0.1401-0.0182-0.2798-0.0258-0.42-0.027
		c-0.0569-0.0005-0.1131-0.006-0.1699-0.0037c-0.1943,0.0076-0.387,0.0305-0.5768,0.0699
		c-0.0477,0.0099-0.0934,0.0269-0.1407,0.0387c-0.1456,0.0366-0.2888,0.0808-0.429,0.136c-0.0634,0.0249-0.1246,0.0533-0.1867,0.082
		c-0.1279,0.0592-0.2515,0.1265-0.3723,0.2014c-0.0538,0.0333-0.108,0.0645-0.1604,0.101
		c-0.1678,0.1171-0.3295,0.2448-0.4776,0.3929l-135.8711,135.832c-1.0029,1.0029-1.3037,2.5117-0.7607,3.8223
		c0.543,1.3115,1.8223,2.166,3.2412,2.166h0.1385h279.7551L328.4648,688.9551c-0.0119,0.0133-0.0193,0.0288-0.0309,0.0422
		c-0.1351,0.1555-0.2598,0.3206-0.3669,0.5c-0.0137,0.0231-0.0226,0.0477-0.0358,0.0709c-0.0701,0.1238-0.138,0.2493-0.1934,0.3829
		c-0.0126,0.0303-0.0188,0.062-0.0305,0.0925c-0.024,0.0627-0.0422,0.1262-0.0625,0.1899c-0.0423,0.1332-0.0771,0.2668-0.103,0.4023
		c-0.0123,0.0645-0.0242,0.1282-0.0329,0.193c-0.0202,0.1512-0.029,0.3024-0.0294,0.4537
		c-0.0002,0.0474-0.0048,0.0942-0.0031,0.1416c0.0074,0.197,0.0304,0.3922,0.0706,0.5846c0.0095,0.046,0.0261,0.0902,0.0374,0.1359
		c0.0366,0.146,0.0807,0.2893,0.1359,0.4299c0.0258,0.0657,0.0553,0.1292,0.0851,0.1934c0.0576,0.1243,0.123,0.2441,0.1954,0.3617
		c0.0352,0.057,0.0681,0.1144,0.1069,0.1698c0.1165,0.1669,0.2436,0.3276,0.3907,0.4749l135.833,135.8711
		c0.6709,0.6709,1.5684,1.0273,2.4814,1.0273c0.4512,0,0.9072-0.0869,1.3408-0.2666c1.3115-0.543,2.166-1.8223,2.166-3.2412v-0.1384
		V548.699L616.123,679.0186c0.015,0.0134,0.0325,0.0221,0.0476,0.0352c0.1482,0.1283,0.3044,0.2478,0.4744,0.3508
		c0.0129,0.0078,0.0266,0.0134,0.0396,0.021c0.1392,0.082,0.2834,0.157,0.4355,0.22c0.0164,0.0068,0.0337,0.0085,0.05,0.0151
		c0.1489,0.0591,0.3015,0.0999,0.4556,0.1376c0.0613,0.0151,0.1213,0.0387,0.1831,0.0504c0.2157,0.0405,0.4337,0.0635,0.6521,0.0635
		c0.0002,0,0.0002,0,0.0005,0s0.0002,0,0.0005,0c0.0222,0,0.0439-0.0061,0.0662-0.0065c0.2041-0.0039,0.408-0.0201,0.6086-0.0593
		c0.0846-0.0166,0.1647-0.0509,0.2478-0.0736c0.1357-0.037,0.2727-0.0676,0.4039-0.1211c0.1345-0.0549,0.2594-0.1322,0.387-0.2039
		c0.0725-0.0408,0.1497-0.0701,0.2197-0.1163c0.1948-0.1285,0.3788-0.2772,0.5482-0.4467l135.8701-135.832
		C757.8164,542.0499,758.1172,540.5411,757.5742,539.2305z M527.6533,589.6944l87.3018-43.4478v122.266L527.6533,589.6944z
		 M621.9707,667.9366V544.0909c17.7146-0.002,97.5312-0.0078,123.8906-0.0098L621.9707,667.9366z M339.5459,694.8018h123.8477
		c0.002,17.7146,0.0078,97.5312,0.0098,123.8916L342.9126,698.1695L339.5459,694.8018z M338.9717,687.7862l78.8173-87.3008
		l43.4482,87.3008H338.9717z M422.5447,594.294l40.8596-45.6826v127.7828L422.5447,594.294z M593.9619,385.1983H470.1152
		c-0.002-17.7148-0.0078-97.5332-0.0098-123.8916l0.618,0.6182L593.9619,385.1983z M594.5361,392.2139l-78.8174,87.3008
		l-43.4473-87.3008H594.5361z M510.9634,485.7066l-40.8589,45.6821V403.6063L510.9634,485.7066z M311.5381,412.0626v123.8467
		c-17.7148,0.002-97.5332,0.0078-123.8916,0.0098l0.6182-0.618L311.5381,412.0626z M318.5537,411.4883l87.3008,78.8174
		l-87.3008,43.4473V411.4883z M329.946,535.92l82.1004-40.8589l45.6821,40.8589H329.946z M603.5618,544.0801l-82.1003,40.8589
		l-45.6821-40.8589H603.5618z"/>
</g>
<g>
	<path class="st1" d="M971.8487,631.6898c0-16.3726-4.6955-28.3808-13.954-35.6912c-9.2402-7.2945-21.4814-10.9943-36.3763-10.9943
		l-40.5923,0.0023c-3.074,0.3448-4.6315,1.8316-4.6315,4.4191v169.0538c0,3.0945,1.5712,4.6635,4.6635,4.6635
		s4.6635-1.569,4.6635-4.6635v-79.8622h35.4766l38.7789,75.6212l0.0822,0.1599h0.105c0.0868,0.0891,0.3517,0.4362,1.014,1.7517
		l1.0048,2.7337c0.3243,0.4887,0.7674,1.1396,1.3383,1.9481c0.5847,0.8427,1.1921,1.4457,1.7951,1.7859
		c0.6029,0.3494,1.2652,0.5253,1.9686,0.5253c1.3702,0,2.4985-0.4385,3.3618-1.2995c0.8633-0.8633,1.3018-1.996,1.3018-3.364
		c0-0.8564-0.2558-1.7996-0.7628-2.8068l-39.8843-77.5944C958.1733,674.7256,971.8487,659.1205,971.8487,631.6898z
		 M962.5171,631.6898c0,12.8052-3.6815,22.3721-10.944,28.4356c-7.2808,6.0795-17.3934,9.1626-30.0548,9.1626h-35.8968v-74.9543
		h35.8968c12.6614,0,22.774,3.0421,30.0548,9.0416C958.8356,609.3588,962.5171,618.8868,962.5171,631.6898z"/>
	<path class="st1" d="M1099.5542,585.0043c-3.0923,0-4.6635,1.4868-4.6635,4.4214V714.272c0,13.6205-3.3618,23.9708-9.9985,30.7651
		c-6.6322,6.7897-16.2469,10.2337-28.575,10.2337c-12.3325,0-21.9016-3.444-28.4469-10.2337
		c-6.5546-6.7921-9.8798-17.1422-9.8798-30.7651V589.4257c0-2.9347-1.5713-4.4214-4.6635-4.4214
		c-3.0923,0-4.6636,1.4868-4.6636,4.4214V714.272c0,17.3317,4.3621,30.1918,12.9629,38.2285
		c8.6008,8.0276,20.2711,12.0995,34.6909,12.0995c14.4199,0,26.1313-4.072,34.8097-12.0995
		c8.6876-8.039,13.0908-20.9014,13.0908-38.2285V589.4257C1104.2178,586.491,1102.6465,585.0043,1099.5542,585.0043z"/>
	<path class="st1" d="M1243.589,585.0043c-3.0969,0-4.6681,1.4868-4.6681,4.4214v150.5801l-73.7759-146.1061
		c-3.3253-5.9858-5.8694-8.8954-7.7832-8.8954c-3.0923,0-4.6636,1.4868-4.6636,4.4214v169.0538
		c0,3.0945,1.5713,4.6635,4.6636,4.6635c3.0922,0,4.6635-1.569,4.6635-4.6635v-150.587l74.2555,146.3437
		c3.001,5.9927,5.3898,8.9068,7.3082,8.9068c3.0922,0,4.6635-1.569,4.6635-4.6635V589.4257
		C1248.2524,586.491,1246.6812,585.0043,1243.589,585.0043z"/>
	<path class="st1" d="M1380.5758,585.0043h-94.9695c-1.3749,0-2.5122,0.4819-3.3755,1.4319
		c-0.8588,0.9432-1.2926,2.0303-1.2926,3.2316c0,1.2036,0.4338,2.2929,1.2926,3.2338c0.8588,0.9501,1.9961,1.4319,3.3755,1.4319
		h42.9399v164.1459c0,3.0945,1.5713,4.6635,4.6636,4.6635s4.6635-1.569,4.6635-4.6635V594.3336h42.7025
		c3.0923,0,4.6636-1.6512,4.6636-4.9079C1385.2394,586.491,1383.6681,585.0043,1380.5758,585.0043z"/>
	<path class="st1" d="M1422.5931,585.0043c-3.0922,0-4.6635,1.4868-4.6635,4.4214v169.0538c0,3.0945,1.5713,4.6635,4.6635,4.6635
		c3.0923,0,4.6636-1.569,4.6636-4.6635V589.4257C1427.2567,586.491,1425.6854,585.0043,1422.5931,585.0043z"/>
	<path class="st1" d="M1590.9185,585.0043c-1.9138,0-4.4626,2.9096-7.7924,8.9045l-47.1011,92.2724l-46.8682-92.2815
		c-3.3252-5.9858-5.8694-8.8954-7.7832-8.8954c-3.0923,0-4.6636,1.4868-4.6636,4.4214v169.0538
		c0,3.0945,1.5713,4.6635,4.6636,4.6635s4.6635-1.569,4.6635-4.6635V607.8743l45.1051,87.3348
		c1.5256,3.2178,3.1196,4.7822,4.8828,4.7822c1.585,0,3.179-1.5598,4.8735-4.7731l45.3518-87.3508v150.6121
		c0,3.0945,1.5712,4.6635,4.6681,4.6635c3.0922,0,4.6635-1.569,4.6635-4.6635V589.4257
		C1595.5819,586.491,1594.0106,585.0043,1590.9185,585.0043z"/>
	<path class="st1" d="M1736.1636,753.8137h-81.8058v-75.1964h38.5688c2.9324,0,4.4214-1.4868,4.4214-4.4214
		c0-3.2567-1.489-4.9079-4.4214-4.9079h-38.5688v-74.9543h81.8058c2.9324,0,4.4214-1.6512,4.4214-4.9079
		c0-2.8936-1.5302-4.4214-4.4214-4.4214h-86.4692c-3.0923,0-4.6636,1.569-4.6636,4.6636v168.8116
		c0,3.0945,1.5713,4.6635,4.6636,4.6635h86.4692c2.9324,0,4.4214-1.4868,4.4214-4.4214
		C1740.585,755.4648,1739.0959,753.8137,1736.1636,753.8137z"/>
</g>
</svg>
